<svg version="1.0" xmlns="http://www.w3.org/2000/svg"
 width="150" height="150" viewBox="0 0 1024.000000 1024.000000"
 preserveAspectRatio="xMidYMid meet">
<defs>
  <mask id="m">
    <rect width="10240" height="10240" fill="white"/>
    <g transform="translate(0.000000,1024.000000) scale(0.100000,-0.100000)"
    fill="black" stroke="none">
<path d="M0 8040 c0 -1210 3 -2200 8 -2200 4 0 27 6 52 14 89 27 158 28 295 6
185 -30 391 -36 540 -16 105 14 257 49 306 70 11 5 24 -5 44 -36 l28 -42 18
39 c9 22 23 55 30 74 11 31 14 32 26 16 12 -18 13 -18 33 0 11 10 34 40 51 67
26 40 32 60 32 103 0 66 -30 120 -114 208 l-60 62 -16 -23 c-16 -23 -16 -23
-55 48 -21 38 -42 70 -46 70 -4 0 -18 -20 -31 -45 -13 -25 -27 -45 -30 -45 -7
0 -56 171 -68 233 -7 39 21 108 63 151 51 53 94 61 239 47 66 -7 199 -11 295
-9 l175 3 135 -38 c74 -21 146 -43 160 -48 14 -5 75 -21 135 -35 139 -33 454
-45 543 -21 28 8 52 11 52 8 0 -3 -17 -28 -38 -56 -26 -34 -61 -63 -110 -91
-40 -22 -74 -43 -77 -46 -3 -3 27 -22 67 -43 241 -127 453 -289 583 -448 35
-42 66 -73 69 -68 11 17 -25 243 -54 337 -81 267 -301 531 -537 646 -70 33
-97 41 -180 49 -228 21 -303 25 -388 18 -49 -4 -138 -10 -196 -14 l-105 -8
-41 39 c-56 54 -67 96 -42 174 29 95 32 98 59 59 13 -19 25 -36 27 -38 1 -2
12 8 24 23 36 46 51 57 69 51 25 -8 125 86 140 131 7 21 9 54 5 80 -7 48 -62
163 -100 209 -22 26 -27 28 -44 18 -19 -12 -21 -8 -37 45 -10 31 -21 61 -26
67 -5 5 -24 -6 -47 -29 l-39 -38 -6 28 c-13 72 -18 204 -7 236 13 40 64 92
104 107 50 19 122 12 235 -23 60 -19 147 -40 193 -46 223 -30 203 -23 432
-139 133 -68 259 -124 328 -146 112 -36 309 -75 379 -75 22 0 42 -4 45 -10 12
-19 -149 -105 -217 -116 -21 -4 -38 -10 -38 -14 0 -4 47 -49 104 -99 209 -185
386 -408 504 -638 106 -207 168 -401 218 -683 24 -139 27 -179 27 -385 0 -190
-4 -266 -27 -440 -46 -367 -45 -572 5 -800 27 -121 50 -205 58 -205 3 0 39 53
79 118 139 225 289 421 458 602 260 278 420 470 463 556 46 93 104 294 89 309
-2 2 -32 -1 -66 -7 -52 -10 -75 -9 -143 6 -45 10 -85 14 -90 9 -12 -12 -29
-137 -29 -221 l0 -74 -24 29 c-62 74 -119 204 -132 307 -5 31 -19 66 -42 99
-19 27 -45 74 -58 103 -23 52 -95 254 -116 323 -13 46 -90 120 -195 187 -153
99 -254 188 -314 277 -69 103 -72 100 51 59 60 -20 111 -34 114 -32 11 12 -34
192 -56 222 -12 18 -66 76 -118 128 -125 124 -174 218 -195 375 l-7 50 68 -66
c60 -58 164 -139 179 -139 3 0 5 7 5 16 0 29 -56 115 -155 239 -53 66 -114
147 -136 180 -79 120 -114 300 -90 464 13 89 86 331 100 331 5 0 11 -52 15
-116 9 -134 25 -205 66 -289 28 -59 133 -175 146 -162 3 3 -2 48 -11 99 -28
150 -23 303 14 488 67 325 34 459 -167 671 -75 80 -74 80 72 28 115 -42 210
-102 291 -185 128 -131 177 -243 215 -489 34 -225 71 -310 179 -406 l54 -48
36 15 c93 40 132 53 189 64 61 12 62 13 73 54 52 202 142 522 148 528 3 4 42
-122 85 -281 l79 -288 62 -12 c35 -6 96 -25 137 -41 40 -16 78 -30 83 -30 20
0 88 64 131 123 52 71 87 173 104 307 24 189 59 295 133 404 102 152 260 260
454 310 l53 14 -69 -76 c-87 -97 -154 -201 -175 -271 -26 -87 -21 -206 16
-388 27 -133 32 -179 32 -293 -1 -84 -7 -165 -17 -214 -9 -44 -14 -82 -12 -85
3 -3 32 21 64 53 100 99 150 248 152 455 1 81 1 84 14 56 26 -55 84 -249 94
-315 29 -178 -5 -354 -92 -478 l-40 -57 26 -80 c41 -126 84 -312 109 -473 20
-131 23 -183 23 -472 0 -298 -3 -342 -28 -534 -83 -626 -254 -1118 -538 -1551
-47 -71 -150 -215 -228 -318 -269 -357 -395 -580 -500 -884 -52 -153 -101
-361 -101 -433 l0 -55 35 101 c204 605 608 1069 1160 1330 l110 52 24 78 c80
273 234 570 397 765 l63 76 5 159 c5 171 34 418 66 567 53 246 172 518 322
732 85 122 261 314 349 382 27 20 46 40 41 43 -4 4 -36 14 -72 24 -36 10 -98
36 -138 59 l-73 42 88 12 c262 36 448 104 707 262 180 109 199 117 326 136 63
9 147 28 185 42 39 13 101 36 140 50 53 19 83 24 127 21 70 -5 103 -27 135
-88 20 -38 23 -57 23 -169 l0 -126 -41 48 c-22 26 -44 47 -49 47 -4 0 -16 -32
-25 -70 -14 -58 -20 -69 -31 -59 -21 17 -38 -2 -84 -93 -34 -69 -40 -90 -40
-144 0 -62 2 -66 41 -109 59 -63 105 -91 125 -74 13 11 21 7 54 -29 l38 -43
24 42 24 41 32 -84 c18 -45 30 -93 28 -105 -7 -34 -32 -76 -61 -103 -29 -28
-4 -26 -345 -19 -130 3 -173 0 -270 -19 -185 -37 -271 -62 -341 -99 -88 -48
-233 -165 -289 -234 -48 -61 -115 -181 -150 -268 l-21 -54 108 7 c150 9 276
35 503 103 l195 58 175 -3 c119 -1 212 3 290 14 145 20 186 12 246 -51 45 -47
70 -117 55 -157 -4 -13 -16 -65 -26 -116 -11 -57 -22 -91 -29 -89 -6 2 -21 22
-34 45 -13 23 -28 42 -33 42 -11 0 -69 -117 -69 -140 -1 -11 -4 -9 -12 5 -6
11 -12 22 -14 24 -6 7 -67 -51 -101 -95 -42 -54 -72 -120 -73 -156 0 -42 35
-113 81 -163 40 -43 43 -45 60 -29 13 11 19 13 19 5 0 -17 41 -111 49 -111 3
0 19 23 36 50 25 43 30 48 37 31 8 -24 21 -130 22 -191 l1 -44 60 -13 c113
-23 267 -32 391 -22 316 25 375 23 479 -17 13 -6 15 254 15 2505 l0 2511
-5120 0 -5120 0 0 -2200z"/>
<path d="M4030 9365 c0 -3 13 -29 29 -58 76 -135 85 -288 32 -544 -22 -107
-31 -179 -31 -246 0 -93 25 -270 54 -373 l13 -51 -41 9 c-22 5 -59 20 -81 33
-88 51 -194 188 -215 277 -19 78 -33 44 -34 -79 -1 -185 37 -271 220 -498 115
-143 160 -223 170 -302 l6 -52 -34 -6 c-37 -7 -77 7 -137 46 l-33 23 7 -25
c11 -36 48 -81 150 -184 51 -52 102 -114 114 -139 12 -25 30 -91 41 -148 10
-57 21 -115 25 -129 6 -25 6 -26 -42 -22 -26 2 -56 5 -65 7 -48 11 15 -51 127
-125 127 -84 239 -174 267 -215 22 -33 58 -122 144 -360 13 -36 43 -87 88
-149 8 -11 22 -63 31 -115 16 -94 35 -141 35 -87 0 16 7 57 16 92 l16 63 37
-13 c21 -7 72 -20 113 -30 75 -16 78 -16 160 5 135 36 123 37 137 -12 6 -23
15 -63 20 -88 l8 -45 12 28 c6 16 18 68 26 115 11 63 22 93 39 112 34 36 67
107 116 245 23 66 57 152 76 192 39 83 75 116 257 237 62 41 129 92 150 114
l39 39 -72 -5 c-71 -5 -72 -4 -65 17 3 12 15 69 25 127 11 58 29 126 42 150
13 24 67 88 120 143 90 91 164 188 153 199 -2 3 -26 -9 -52 -26 -60 -38 -86
-45 -124 -37 -30 7 -31 7 -24 58 9 75 54 158 151 277 172 214 212 286 235 429
10 68 3 211 -11 211 -5 0 -12 -15 -15 -32 -29 -131 -177 -284 -314 -323 -21
-6 -23 -5 -18 16 73 326 76 415 20 697 -46 235 -34 377 44 510 13 24 23 45 21
48 -8 7 -114 -71 -164 -121 -57 -59 -126 -184 -149 -270 -8 -32 -21 -107 -30
-168 -22 -160 -36 -209 -81 -300 -31 -61 -161 -193 -200 -203 -18 -5 -43 1
-83 20 -58 27 -191 66 -226 66 -11 0 -26 4 -33 9 -7 4 -37 95 -66 201 -29 106
-55 189 -58 184 -3 -5 -27 -88 -53 -185 -26 -97 -50 -180 -53 -186 -4 -6 -52
-22 -107 -36 -55 -13 -129 -38 -165 -55 -61 -29 -66 -30 -94 -15 -44 23 -131
108 -167 165 -48 75 -78 167 -100 312 -33 222 -65 310 -153 425 -45 59 -196
179 -196 156z m411 -1832 c13 -21 85 -102 160 -179 143 -147 180 -201 213
-313 9 -30 16 -77 16 -105 l0 -51 -20 25 c-11 14 -38 69 -61 122 -55 131 -85
173 -188 267 -95 87 -137 151 -147 225 -4 25 -4 46 -1 46 3 0 16 -17 28 -37z
m1368 -68 c-18 -49 -40 -76 -136 -172 -94 -93 -120 -126 -145 -181 -61 -136
-87 -187 -102 -207 -14 -19 -15 -16 -15 35 -1 62 32 164 75 237 15 27 89 112
165 189 76 78 146 157 156 175 18 34 18 34 21 8 2 -14 -7 -52 -19 -84z m-924
-1144 c36 -30 54 -56 70 -100 31 -91 21 -93 -65 -9 -76 74 -95 109 -73 131 9
10 44 -2 68 -22z m545 -7 c0 -20 -20 -46 -80 -103 -81 -78 -87 -79 -71 -8 18
75 74 135 129 136 17 1 22 -4 22 -25z"/>
<path d="M1935 8075 c-49 -25 -65 -52 -65 -106 0 -45 2 -49 24 -49 31 0 48
-16 133 -125 219 -281 211 -426 -32 -584 -42 -28 -92 -53 -110 -57 -42 -7 -53
-35 -30 -70 30 -46 53 -49 196 -29 106 15 152 16 257 9 174 -12 247 -9 313 10
75 22 159 84 199 146 19 29 39 50 50 50 20 0 156 -116 256 -218 276 -281 481
-697 516 -1043 15 -150 4 -291 -53 -644 -36 -230 -42 -286 -46 -480 -7 -318
26 -532 122 -790 39 -106 172 -375 185 -375 4 0 13 15 20 33 27 65 158 334
199 407 l43 75 -16 45 c-28 82 -57 213 -77 345 -27 184 -25 378 7 645 56 472
43 778 -47 1117 -111 421 -348 782 -714 1091 -87 73 -124 110 -125 123 0 4 43
16 95 28 52 13 95 26 95 30 0 5 -34 14 -75 20 -127 21 -289 83 -525 200 l-225
113 -105 8 c-121 10 -160 18 -288 60 -105 34 -134 36 -177 15z"/>
<path d="M8930 7969 c-149 -56 -204 -71 -309 -90 -114 -19 -168 -39 -266 -98
-81 -48 -256 -144 -300 -165 -85 -39 -243 -94 -307 -106 -38 -8 -68 -16 -68
-19 0 -3 35 -14 78 -24 110 -27 112 -27 112 -40 0 -13 -7 -20 -140 -131 -289
-244 -517 -609 -615 -983 -51 -196 -91 -515 -83 -657 l3 -59 69 63 c78 70 245
197 304 230 l39 22 7 92 c24 311 154 593 402 868 76 84 254 239 310 269 24 13
28 12 38 -5 39 -66 77 -104 136 -134 98 -49 176 -58 329 -37 100 14 153 16
265 10 239 -13 235 -14 262 18 13 16 24 38 24 51 0 19 -10 25 -59 40 -32 10
-100 44 -150 76 -137 89 -177 163 -152 284 15 74 45 135 124 251 77 115 95
135 124 135 20 0 23 5 23 38 0 50 -18 81 -60 103 -44 24 -71 23 -140 -2z"/>
<path d="M6333 7818 c-38 -43 -140 -183 -157 -216 -10 -18 -16 -40 -14 -49 4
-22 108 50 180 125 l57 59 -16 52 c-9 28 -20 51 -23 51 -4 0 -16 -10 -27 -22z"/>
<path d="M6395 7633 c-4 -27 -24 -85 -45 -130 -32 -69 -56 -100 -147 -195 -61
-62 -116 -124 -123 -138 -14 -26 -51 -192 -44 -199 2 -2 36 10 76 27 106 44
138 55 143 50 3 -2 -15 -38 -39 -79 -57 -96 -153 -188 -296 -282 -126 -83
-189 -136 -212 -182 -9 -16 -37 -90 -63 -164 -57 -164 -85 -227 -124 -284 -19
-28 -36 -71 -45 -118 -9 -40 -27 -102 -41 -138 -28 -74 -109 -191 -112 -163
-1 9 -5 56 -8 105 -4 48 -11 85 -16 81 -5 -3 -9 -20 -9 -37 0 -51 -53 -190
-103 -270 -48 -76 -174 -228 -318 -382 -215 -231 -296 -328 -437 -525 -140
-194 -329 -510 -420 -700 -69 -145 -139 -327 -188 -493 -28 -96 -32 -99 -94
-59 -14 9 -41 25 -60 35 -107 58 -257 176 -405 318 -355 340 -455 425 -645
551 -267 177 -522 272 -855 320 -100 14 -437 17 -645 5 -86 -4 -166 -3 -220 4
-148 19 -295 15 -375 -11 -85 -27 -220 -50 -298 -50 -69 0 -119 -21 -147 -60
-29 -40 -34 -81 -17 -122 13 -31 18 -34 44 -31 23 4 49 -8 116 -51 48 -31 91
-56 96 -56 6 0 46 -35 89 -77 64 -63 81 -87 92 -125 16 -60 7 -135 -25 -197
-38 -75 -144 -217 -170 -229 -31 -14 -33 -52 -4 -78 31 -28 88 -22 151 14 29
17 88 51 131 75 44 25 131 65 195 88 65 23 145 60 180 82 116 73 212 210 212
305 l0 51 78 18 c109 25 374 25 492 -1 169 -36 312 -100 475 -209 227 -152
396 -314 671 -643 291 -348 558 -596 804 -748 83 -52 93 -62 79 -89 -14 -25
-53 -18 -239 43 -249 81 -494 219 -684 386 l-89 77 29 -52 c79 -141 295 -404
445 -542 295 -268 568 -457 893 -614 216 -105 352 -151 502 -170 147 -19 409
-21 554 -5 149 17 300 42 300 50 0 4 -19 13 -42 19 -24 7 -74 29 -113 48 -333
166 -557 470 -632 858 -26 139 -24 431 6 600 67 380 204 729 443 1128 91 152
202 320 288 432 187 246 345 481 435 650 26 50 51 95 55 100 23 31 152 357
181 455 53 179 103 441 115 595 7 96 19 123 49 111 23 -8 19 -124 -10 -307
-86 -550 -285 -985 -714 -1564 -277 -373 -421 -606 -546 -885 -179 -397 -258
-717 -258 -1040 0 -291 61 -505 204 -717 137 -203 356 -362 584 -424 103 -28
165 -22 320 29 608 201 1143 580 1581 1122 81 101 133 172 224 309 103 155
260 432 260 460 0 9 -94 71 -108 71 -4 0 -25 -31 -46 -68 -322 -554 -778
-1034 -1171 -1229 -168 -84 -284 -121 -462 -148 -244 -36 -456 1 -626 111 -87
56 -208 176 -267 264 -85 125 -140 295 -140 428 0 138 71 476 138 653 44 117
165 370 209 439 16 25 54 83 84 130 30 46 101 148 159 225 294 391 386 539
515 830 229 517 355 1304 301 1874 -22 231 -69 501 -86 501 -4 0 -11 -21 -15
-47z"/>
<path d="M2841 7147 c-18 -23 -54 -58 -80 -77 -25 -19 -49 -38 -51 -42 -3 -4
31 -25 75 -46 44 -22 108 -60 142 -86 70 -53 185 -172 251 -261 71 -95 149
-267 185 -407 31 -120 31 -129 32 -348 0 -176 -4 -245 -18 -315 -25 -127 -77
-306 -143 -491 -187 -527 -225 -664 -244 -875 l-11 -127 92 -88 c52 -49 148
-142 216 -206 209 -200 454 -379 473 -347 5 7 21 57 36 110 l27 98 -55 93
c-168 282 -253 550 -287 902 -23 238 -12 383 68 885 48 298 48 459 1 656 -67
277 -232 574 -455 815 -61 66 -206 200 -215 199 -3 0 -20 -19 -39 -42z"/>
<path d="M8083 6996 c-169 -136 -340 -346 -429 -526 -57 -115 -87 -202 -74
-210 14 -9 151 -22 158 -16 2 3 19 40 36 83 102 251 300 458 528 551 37 15 68
29 67 32 0 3 -23 16 -52 30 -28 14 -74 46 -101 73 -28 26 -51 47 -52 47 -1 0
-38 -29 -81 -64z"/>
<path d="M1235 6785 c-5 -2 -22 -6 -38 -9 -31 -7 -87 -77 -87 -110 0 -12 5
-37 10 -57 9 -31 13 -35 38 -31 31 4 82 -37 233 -187 105 -105 134 -159 134
-251 0 -93 -36 -161 -141 -266 -45 -46 -94 -88 -108 -94 -58 -22 -17 -100 52
-100 33 0 187 51 240 79 32 17 128 40 233 56 229 35 345 107 423 263 17 33 33
52 44 52 24 0 222 -119 328 -197 124 -92 316 -288 387 -396 68 -102 147 -265
172 -354 18 -64 29 -77 38 -45 2 9 27 91 55 182 54 177 81 313 85 425 2 70 2
71 -47 140 -71 100 -141 178 -221 247 -93 79 -292 212 -435 288 -63 34 -120
66 -126 71 -14 12 -6 49 10 49 6 0 40 14 76 31 59 29 63 33 40 39 -14 4 -69 8
-122 9 -173 4 -270 23 -581 114 -167 50 -198 53 -336 37 -76 -9 -168 -4 -311
14 -19 3 -39 3 -45 1z"/>
<path d="M9020 6344 c-68 -11 -110 -12 -208 -3 -143 13 -144 13 -339 -47 -286
-87 -436 -115 -620 -116 -57 0 -103 -4 -103 -10 0 -11 95 -56 138 -64 24 -5
32 -11 32 -28 0 -18 -21 -29 -138 -75 -493 -192 -863 -534 -1087 -1004 -57
-121 -150 -365 -142 -374 2 -2 24 4 48 12 114 41 322 77 498 87 l44 3 23 61
c110 296 403 614 713 773 101 52 251 113 308 125 31 7 32 6 43 -33 23 -87 130
-188 251 -239 59 -24 104 -34 219 -46 149 -17 241 -41 314 -82 58 -34 67 -31
43 16 -11 23 -18 43 -15 45 2 2 40 -7 83 -20 99 -31 105 -31 105 0 0 18 -8 28
-27 36 -76 29 -228 200 -260 294 -38 113 19 233 193 406 95 94 105 101 133 96
28 -6 31 -4 41 31 5 20 10 43 10 51 0 22 -49 100 -70 111 -25 13 -125 11 -230
-6z"/>
<path d="M7551 6203 c-23 -87 -41 -243 -29 -243 5 0 39 15 76 34 37 18 91 41
119 50 29 10 55 21 57 24 2 4 -19 18 -46 32 -59 29 -134 92 -143 120 -10 31
-23 24 -34 -17z"/>
<path d="M2261 6005 c-22 -42 -102 -125 -146 -152 -18 -11 -18 -12 10 -13 50
-1 186 -39 252 -70 263 -123 464 -356 573 -665 32 -93 70 -285 70 -359 0 -24
3 -45 6 -49 4 -3 26 49 49 117 24 68 48 134 55 146 15 28 8 64 -37 205 -104
325 -345 609 -702 826 -53 32 -98 59 -101 59 -3 0 -16 -20 -29 -45z"/>
<path d="M68 5793 l-68 -16 0 -212 c0 -198 1 -213 20 -230 11 -10 29 -43 41
-74 26 -71 20 -122 -27 -211 -32 -61 -34 -69 -34 -167 0 -57 2 -103 5 -103 3
0 52 24 108 54 65 35 147 68 226 91 68 20 153 50 189 68 122 59 212 164 228
266 10 60 19 63 110 41 335 -81 633 -238 824 -436 53 -55 116 -130 140 -167
25 -38 54 -70 65 -72 169 -35 337 -84 438 -129 40 -18 57 -22 57 -13 0 7 -21
54 -47 103 -201 385 -455 664 -784 859 -133 78 -346 160 -520 199 -60 13 -104
28 -103 35 1 6 2 18 3 26 0 8 7 15 14 15 12 0 118 82 113 87 -2 2 -34 -3 -72
-11 -115 -24 -294 -39 -379 -31 -44 3 -138 15 -210 26 -153 22 -245 23 -337 2z"/>
<path d="M1112 5759 c-29 -28 -52 -52 -50 -54 5 -4 132 -34 135 -32 1 2 -2 20
-7 42 -5 21 -6 51 -3 67 8 42 -14 35 -75 -23z"/>
<path d="M1905 5769 c-22 -4 -83 -15 -135 -24 -52 -9 -135 -32 -185 -51 -49
-20 -116 -45 -147 -57 -32 -11 -58 -23 -58 -26 0 -4 20 -14 44 -24 69 -28 256
-138 347 -203 111 -79 309 -277 396 -394 120 -162 169 -244 262 -435 63 -129
72 -142 112 -164 85 -47 285 -190 349 -248 l25 -23 7 62 c29 266 40 449 34
541 -9 137 -46 315 -88 418 -34 86 -108 224 -137 257 -9 9 -38 43 -65 75 -114
134 -296 248 -456 287 -89 21 -229 25 -305 9z"/>
<path d="M8060 5572 c-256 -102 -505 -296 -679 -532 -64 -86 -147 -243 -157
-297 l-6 -31 62 -4 c34 -1 65 2 69 7 4 6 20 39 36 75 41 94 123 214 207 300
78 81 224 186 312 225 68 30 224 72 296 80 30 3 74 8 96 11 l42 5 -52 49 c-28
26 -64 71 -81 99 -16 28 -34 51 -40 51 -5 -1 -53 -17 -105 -38z"/>
<path d="M8155 5325 c-174 -32 -397 -140 -409 -198 -3 -12 -14 -78 -26 -147
-11 -69 -27 -159 -35 -200 -31 -162 -32 -146 11 -160 22 -7 77 -30 125 -52
l85 -39 60 59 c153 151 286 244 503 352 179 89 452 170 629 186 39 4 72 10 72
14 0 15 -38 37 -95 55 -33 10 -89 32 -125 48 -77 34 -157 53 -260 62 -41 4
-106 13 -143 21 -84 17 -296 17 -392 -1z"/>
<path d="M807 5195 c-18 -52 -81 -151 -102 -159 -38 -14 -6 -21 104 -22 251
-4 474 -101 690 -300 l56 -51 115 -11 c63 -6 116 -9 119 -7 8 9 -74 107 -161
191 -109 105 -202 170 -354 248 -103 52 -390 156 -433 156 -14 0 -23 -13 -34
-45z"/>
<path d="M3 5185 c0 -27 2 -38 4 -22 2 15 2 37 0 50 -2 12 -4 0 -4 -28z"/>
<path d="M9200 5222 c0 -5 25 -32 56 -60 31 -28 54 -57 52 -64 -3 -8 -44 -17
-119 -24 -379 -38 -734 -173 -1003 -383 -33 -25 -69 -55 -80 -66 -12 -11 -45
-41 -74 -67 -28 -25 -52 -50 -52 -56 0 -15 293 -182 320 -182 7 0 31 15 54 34
68 55 182 125 281 172 214 102 538 183 740 187 l99 2 8 -54 c11 -73 52 -144
118 -203 66 -59 153 -103 315 -161 84 -30 149 -61 216 -105 53 -34 99 -62 102
-62 4 0 7 48 7 107 0 96 -2 110 -26 150 -28 49 -54 125 -54 164 0 41 29 115
56 139 l24 23 0 223 0 222 -27 5 c-16 3 -55 13 -88 22 -57 17 -72 17 -283 0
-274 -22 -374 -15 -619 40 -13 3 -23 1 -23 -3z"/>
<path d="M7581 4983 c-66 -82 -161 -244 -161 -275 0 -9 29 -20 85 -32 47 -10
87 -17 89 -15 7 8 76 373 76 402 0 21 -26 -2 -89 -80z"/>
<path d="M610 4937 c-30 -7 -60 -16 -66 -20 -7 -4 -71 -22 -143 -42 -135 -36
-177 -53 -318 -133 l-83 -47 0 -109 0 -110 37 44 c20 23 52 49 70 57 19 7 96
17 171 22 81 5 152 15 174 24 91 38 186 50 322 41 126 -9 666 -7 675 2 17 17
-195 165 -304 212 -128 55 -170 64 -330 68 -98 2 -169 -1 -205 -9z"/>
<path d="M7045 4649 c-265 -14 -426 -56 -671 -174 -143 -68 -321 -180 -424
-265 -172 -144 -351 -353 -472 -553 -103 -169 -204 -411 -269 -641 -44 -157
-45 -151 17 -281 74 -154 230 -312 379 -385 119 -58 189 -73 335 -73 280 1
526 80 790 255 204 135 473 397 662 643 115 151 339 493 342 522 1 20 -121 82
-231 117 -133 43 -118 50 -220 -104 -202 -304 -375 -475 -644 -638 -162 -97
-494 -232 -583 -235 -60 -3 -64 12 -38 150 116 598 506 1030 1011 1118 163 29
394 15 586 -35 140 -37 212 -67 444 -189 233 -123 396 -197 513 -234 l67 -21
10 -59 c15 -84 47 -144 110 -207 78 -77 139 -106 282 -136 150 -31 189 -44
304 -99 50 -23 107 -48 128 -55 75 -24 137 9 137 72 0 21 -5 28 -19 28 -32 0
-210 195 -244 269 -71 151 -24 274 165 429 111 92 130 104 155 97 19 -4 24 1
34 34 16 52 6 82 -40 131 l-38 40 -149 -6 c-120 -6 -163 -4 -221 10 -102 23
-179 20 -302 -11 -172 -45 -330 -37 -519 27 -83 29 -338 157 -461 232 -182
113 -470 207 -676 223 -44 3 -89 7 -100 9 -11 1 -78 -1 -150 -5z"/>
<path d="M9220 4635 c-213 -34 -411 -95 -584 -182 -108 -54 -256 -150 -256
-166 0 -11 54 -34 130 -56 l75 -21 40 29 c133 95 352 173 536 191 90 9 265 1
355 -16 l37 -7 -42 53 c-49 62 -76 111 -86 158 -7 32 -7 32 -63 31 -31 -1 -95
-7 -142 -14z"/>
<path d="M10227 4578 c-3 -13 -2 -39 3 -58 7 -32 8 -31 9 23 1 60 -3 72 -12
35z"/>
<path d="M9160 4365 c-8 -2 -49 -9 -90 -15 -41 -7 -102 -22 -135 -32 -79 -26
-235 -99 -235 -109 0 -17 109 -9 234 16 146 29 222 31 337 9 66 -12 114 -14
220 -9 164 9 193 -2 255 -90 35 -51 37 -83 10 -171 -13 -43 -30 -98 -36 -122
-6 -23 -15 -40 -20 -37 -4 3 -18 25 -30 50 -12 25 -25 45 -28 45 -4 0 -25 -34
-47 -75 -39 -73 -40 -75 -56 -54 -16 21 -16 21 -63 -27 -69 -72 -96 -123 -96
-181 0 -59 34 -135 85 -192 35 -39 39 -40 56 -25 16 14 18 14 27 -3 5 -10 15
-35 21 -55 15 -47 29 -48 60 -3 13 19 27 35 31 35 4 0 11 -44 14 -99 10 -142
-18 -195 -117 -222 -55 -14 -103 -1 -236 65 -119 60 -150 70 -298 96 -56 10
-128 30 -160 44 -32 14 -107 37 -168 52 -228 54 -388 118 -587 235 -66 39
-125 69 -131 66 -7 -2 -34 -47 -61 -98 -151 -287 -383 -619 -598 -855 -311
-341 -664 -607 -1058 -797 -372 -178 -724 -271 -1170 -308 -354 -29 -852 43
-1285 186 -149 49 -189 65 -335 132 -475 221 -894 604 -1179 1082 -128 213
-216 412 -316 706 -80 237 -69 224 -197 252 -97 20 -290 13 -413 -16 -131 -31
-299 -89 -341 -117 -59 -40 -144 -80 -224 -103 -79 -24 -141 -55 -278 -139
-92 -56 -151 -71 -211 -53 -76 22 -100 75 -101 216 l0 79 40 -39 c34 -33 42
-37 50 -25 5 8 10 22 10 31 0 28 27 82 34 70 4 -6 10 -11 14 -11 13 0 60 84
77 136 28 88 -7 161 -121 245 -60 44 -74 48 -74 20 0 -38 -19 -31 -46 16 -29
51 -53 83 -63 83 -3 0 -17 -20 -30 -45 -13 -25 -27 -45 -31 -45 -4 0 -21 37
-38 83 l-31 82 0 -2162 -1 -2163 5120 0 5120 0 0 2028 0 2028 -34 17 c-19 9
-72 40 -118 69 -102 66 -110 70 -278 125 -176 58 -222 70 -341 88 -86 13 -264
19 -309 10z"/>
<path d="M1352 4089 c-105 -11 -118 -19 -126 -68 -3 -22 -22 -70 -41 -106 -27
-52 -31 -65 -17 -60 33 13 208 53 277 64 316 47 507 -11 744 -229 94 -86 342
-359 427 -470 220 -287 487 -495 801 -624 50 -21 97 -36 103 -34 6 2 -15 22
-47 45 -78 55 -270 227 -366 327 -43 44 -165 185 -271 311 -277 329 -437 483
-655 627 -272 180 -539 250 -829 217z"/>
<path d="M7075 4049 c-230 -31 -431 -135 -611 -314 -137 -136 -268 -352 -327
-540 -27 -88 -72 -284 -65 -290 5 -5 247 76 309 104 107 48 300 210 439 370
118 134 205 263 287 421 69 133 62 130 212 118 192 -16 323 -71 676 -283 250
-150 263 -157 400 -216 98 -42 285 -102 293 -94 3 2 -12 26 -31 52 -23 32 -42
75 -54 121 l-18 73 -65 23 c-129 46 -285 121 -630 304 -222 117 -579 184 -815
151z"/>
<path d="M7162 3771 c-66 -136 -198 -333 -286 -428 -16 -18 -26 -33 -20 -33
19 0 203 197 272 290 84 116 162 235 162 249 0 6 -19 11 -42 11 l-43 -1 -43
-88z"/>
<path d="M2000 3744 c0 -24 59 -198 119 -349 234 -589 613 -1059 1106 -1369
231 -146 615 -305 870 -361 46 -10 23 6 -115 81 -186 99 -258 145 -445 277
-136 97 -282 223 -428 370 -217 219 -365 424 -487 673 -73 148 -139 232 -375
473 -167 171 -245 236 -245 205z"/>
    </g>
  </mask>
</defs>
<rect width="1024" height="1024" fill="currentColor" mask="url(#m)"/>
</svg>
