<svg version="1.0" xmlns="http://www.w3.org/2000/svg"
 width="150" height="150" viewBox="0 0 1024.000000 1024.000000"
 preserveAspectRatio="xMidYMid meet">
<defs>
  <mask id="m">
    <rect width="10240" height="10240" fill="white"/>
    <g transform="translate(0.000000,1024.000000) scale(0.100000,-0.100000)"
    fill="black" stroke="none">
<path d="M0 5120 l0 -5120 5120 0 5120 0 0 5120 0 5120 -5120 0 -5120 0 0
-5120z m2747 4049 c117 -46 297 -157 398 -247 145 -126 278 -304 368 -490 94
-195 81 -152 218 -722 52 -216 135 -452 197 -560 40 -70 95 -142 145 -189 46
-44 157 -131 168 -131 3 0 48 20 100 44 85 40 296 105 392 121 48 8 53 19 117
275 55 221 151 572 182 668 28 87 67 152 90 152 21 0 57 -55 82 -124 13 -39
43 -138 66 -221 40 -144 55 -199 149 -560 23 -88 45 -163 49 -167 4 -4 52 -19
107 -33 124 -33 268 -82 361 -125 l71 -33 44 31 c72 49 146 120 200 191 96
126 194 367 255 625 14 61 37 156 51 211 13 55 26 111 29 125 27 137 66 253
134 401 168 362 433 615 810 772 50 20 178 52 185 46 17 -17 -82 -183 -236
-394 -102 -141 -163 -293 -189 -470 -12 -88 -12 -370 0 -495 46 -462 55 -723
31 -883 -7 -48 -11 -90 -8 -93 3 -3 34 22 70 56 75 70 155 189 190 281 49 131
92 364 102 559 14 274 18 288 67 189 92 -186 142 -332 182 -529 114 -562 -2
-928 -440 -1392 -119 -126 -194 -231 -239 -336 -19 -42 -32 -78 -30 -80 7 -8
80 22 139 56 118 69 278 218 380 355 16 20 32 37 37 37 32 0 -25 -257 -98
-445 -82 -212 -167 -327 -370 -502 -205 -177 -267 -262 -297 -408 -22 -105
-34 -205 -24 -205 36 0 240 89 296 129 15 10 44 26 65 35 33 13 39 14 44 1 17
-46 -55 -234 -137 -356 -97 -143 -278 -285 -550 -432 -178 -96 -336 -223 -403
-324 -68 -104 -90 -153 -168 -379 -79 -232 -125 -335 -194 -438 -44 -65 -48
-76 -70 -205 -56 -331 -141 -512 -308 -659 -74 -65 -77 -60 -77 182 0 182 -6
262 -25 337 -6 26 -8 26 -43 14 -111 -39 -250 -60 -341 -50 -36 3 -113 18
-169 31 -57 14 -105 24 -106 22 -18 -21 -30 -140 -35 -333 -7 -269 -6 -267
-100 -180 -147 136 -226 316 -281 635 -20 116 -26 132 -76 215 -76 129 -125
237 -187 420 -74 217 -91 257 -144 347 -75 130 -243 269 -468 388 -125 66
-157 86 -269 170 -168 125 -269 253 -336 425 -30 78 -51 185 -35 185 4 0 47
-22 95 -50 48 -27 113 -62 146 -76 63 -29 155 -56 162 -49 7 7 -25 203 -43
262 -29 97 -104 193 -250 318 -292 250 -349 339 -462 715 -37 121 -56 269 -34
256 7 -5 45 -49 85 -99 115 -145 222 -236 360 -307 76 -39 106 -48 106 -31 0
22 -74 164 -119 227 -27 39 -99 125 -160 191 -290 316 -416 548 -457 840 -35
255 13 610 118 863 88 213 112 260 130 260 10 0 18 -7 18 -17 1 -88 21 -384
30 -443 43 -294 126 -485 267 -617 72 -68 88 -76 80 -40 -34 138 -33 447 2
802 41 417 38 579 -13 787 -31 123 -76 211 -201 388 -117 167 -195 298 -195
328 l0 21 69 -20 c39 -10 105 -33 148 -50z"/>
<path d="M3000 8805 c0 -3 13 -31 29 -63 33 -65 59 -152 92 -302 32 -147 31
-359 -6 -705 -34 -331 -38 -592 -12 -745 23 -129 60 -262 98 -351 36 -84 37
-103 7 -93 -182 56 -420 211 -538 351 -58 68 -133 198 -169 293 -17 41 -32 68
-34 60 -14 -41 -15 -206 -2 -310 15 -126 50 -245 97 -330 29 -52 137 -219 148
-230 3 -3 28 -32 54 -65 27 -33 78 -92 115 -131 170 -181 246 -297 309 -464
48 -130 88 -281 79 -303 -5 -12 -18 -17 -49 -17 -46 0 -165 25 -182 39 -20 15
-196 84 -202 79 -13 -13 100 -140 196 -220 154 -129 269 -251 312 -333 43 -83
57 -131 98 -335 17 -85 37 -177 45 -204 18 -59 8 -82 -37 -89 -39 -5 -126 1
-183 13 -22 5 -42 6 -45 3 -9 -9 93 -96 181 -154 46 -30 136 -84 199 -119 175
-98 268 -164 397 -284 94 -87 191 -264 268 -491 92 -272 137 -373 227 -508 34
-50 41 -71 54 -160 8 -56 22 -133 30 -172 8 -38 14 -73 14 -77 0 -5 4 -8 9 -8
5 0 11 23 15 51 4 28 18 86 32 130 31 97 41 101 151 65 213 -69 335 -81 488
-46 55 12 129 33 164 46 79 30 101 30 123 0 17 -23 45 -116 65 -216 l9 -45 12
40 c6 22 20 101 31 176 19 136 29 165 77 236 62 90 143 274 196 443 47 148 84
236 151 355 49 88 78 126 144 189 80 77 227 190 288 221 17 8 53 28 80 45 28
16 68 38 90 49 65 31 170 102 244 166 69 59 88 84 54 70 -10 -4 -68 -10 -128
-13 -142 -6 -145 -3 -121 101 9 40 32 147 51 238 44 212 58 251 131 354 39 57
75 92 304 296 89 80 169 174 157 185 -5 6 -132 -43 -164 -64 -61 -39 -258 -67
-269 -38 -15 38 95 369 155 466 17 28 31 53 31 56 0 13 165 211 220 264 78 75
269 339 323 445 23 46 54 160 72 259 15 88 19 273 6 331 -6 27 -8 24 -35 -45
-33 -83 -106 -213 -158 -277 -107 -135 -401 -331 -550 -368 -25 -7 -26 -6 -19
27 4 18 15 47 23 63 33 63 77 226 98 360 20 124 22 163 17 340 -3 110 -15 279
-27 375 -26 222 -37 548 -21 650 20 129 62 282 97 359 19 40 33 78 31 84 -5
17 -192 -177 -239 -247 -64 -98 -175 -333 -203 -431 -14 -49 -48 -189 -76
-310 -49 -216 -102 -411 -139 -510 -56 -153 -150 -324 -233 -425 -82 -101
-282 -240 -344 -240 -12 0 -66 22 -122 50 -109 54 -273 108 -416 136 -128 25
-149 40 -175 122 -34 108 -35 116 -101 385 -34 142 -66 252 -69 245 -4 -7 -15
-47 -25 -88 -10 -41 -33 -131 -52 -200 -18 -69 -42 -165 -53 -215 -41 -189
-67 -227 -161 -241 -138 -20 -338 -83 -461 -145 -54 -27 -109 -49 -123 -49
-34 0 -163 74 -240 137 -34 28 -84 78 -109 110 -25 32 -55 69 -66 83 -31 39
-104 185 -149 298 -57 142 -105 309 -146 507 -75 363 -123 500 -252 718 -51
85 -90 137 -167 215 -89 91 -116 114 -116 97z m779 -3189 c70 -152 149 -243
356 -418 165 -140 272 -267 356 -422 57 -108 119 -361 119 -490 0 -69 -3 -76
-29 -69 -11 3 -27 33 -45 81 -37 101 -108 243 -154 311 l-37 55 -135 46 c-160
55 -183 66 -232 114 -82 80 -118 177 -118 321 0 88 -1 90 -40 147 -22 31 -54
85 -70 120 -36 78 -66 238 -50 268 20 37 38 21 79 -64z m2769 38 c7 -99 -51
-268 -126 -366 -37 -49 -37 -49 -38 -151 -1 -108 -15 -168 -59 -242 -50 -85
-123 -132 -288 -186 -80 -26 -131 -48 -149 -66 -32 -31 -148 -254 -173 -335
-23 -71 -47 -103 -70 -94 -16 6 -17 16 -11 94 8 103 37 251 67 342 30 94 71
170 149 279 75 105 143 175 295 301 55 46 124 108 152 139 68 73 154 201 184
274 19 47 27 57 44 55 16 -2 21 -12 23 -44z m-1908 -2371 c19 -12 63 -50 97
-84 81 -81 108 -147 108 -274 0 -118 -13 -122 -87 -23 -52 69 -103 121 -177
178 -42 33 -69 93 -77 168 -6 59 -6 62 17 70 28 11 69 -1 119 -35z m1081 37
c14 -8 19 -21 19 -57 0 -99 -29 -145 -160 -253 -24 -19 -63 -65 -87 -102 -88
-133 -123 -91 -89 104 10 53 23 90 44 121 43 61 132 140 194 171 60 30 54 29
79 16z"/>
    </g>
  </mask>
</defs>
<rect width="1024" height="1024" fill="#888888" mask="url(#m)"/>
</svg>
